<svg width="50" height="50" viewBox="0 0 50 50" fill="none" xmlns="http://www.w3.org/2000/svg">
<g clip-path="url(#clip0_9_185)">
<path d="M25 0C11.2133 0 0 11.2133 0 25C0 38.7867 11.2133 50 25 50C38.7867 50 50 38.7867 50 25C50 11.2133 38.7867 0 25 0ZM25 46.6667C13.0533 46.6667 3.33333 36.9467 3.33333 25C3.33333 13.0533 13.0533 3.33333 25 3.33333C36.9467 3.33333 46.6667 13.0533 46.6667 25C46.6667 36.9467 36.9467 46.6667 25 46.6667Z" fill="black"/>
<path d="M26.6667 11.6666H23.3333V23.3333H11.6667V26.6666H23.3333V38.3333H26.6667V26.6666H38.3333V23.3333H26.6667V11.6666Z" fill="black"/>
</g>
<defs>
<clipPath id="clip0_9_185">
<rect width="50" height="50" fill="white"/>
</clipPath>
</defs>
</svg>
